<svg xmlns="http://www.w3.org/2000/svg" viewBox="0 0 100 84" aria-hidden="true">
    <path id="like-path-1" 
          d="M50.001,84.011C16.272,62.991 -5.056,41.971 1.037,19.286
             C6.485,-1.003 34.985,-8.436 50.001,12.585C65.018,-8.436 93.517,-1.003 98.963,19.286
             C105.056,41.971 83.728,62.991 50.001,84.011ZM50.001,77.51
             C64.949,67.988 77.196,58.502 85.161,48.786C92.665,39.632 96.253,30.4 93.651,20.712
             C89.3,4.502 66.474,-1.013 54.476,15.782L50.001,22.047L45.526,15.782
             C33.528,-1.013 10.702,4.502 6.349,20.713C3.747,30.4 7.335,39.632 14.839,48.786
             C22.804,58.502 35.052,67.988 50.001,77.51Z" 
          style="fill: rgba(153, 153, 153, 1); transition: fill 0.3s;">
    </path>
</svg>
